<svg width="25" height="24" viewBox="0 0 25 24" fill="none" xmlns="http://www.w3.org/2000/svg">
<path d="M20.2617 4.57031L22.0195 5.23438C22.1758 5.27344 22.293 5.42969 22.293 5.625C22.293 5.82031 22.1758 5.97656 22.0195 6.01562L20.2617 6.67969L19.5977 8.47656C19.5586 8.63281 19.3633 8.75 19.207 8.75C19.0117 8.75 18.8555 8.63281 18.7773 8.47656L18.1133 6.67969L16.3555 6.01562C16.1992 5.97656 16.082 5.82031 16.082 5.625C16.043 5.46875 16.1602 5.27344 16.3555 5.23438L18.1523 4.57031L18.7773 2.77344C18.8555 2.61719 19.0117 2.5 19.207 2.5C19.3633 2.5 19.5195 2.61719 19.5977 2.77344L20.2617 4.57031ZM15.0664 6.64062L18.1914 9.76562C18.6992 10.2344 18.6992 11.0547 18.1914 11.5234L18.0742 11.6406C18.3867 12.5 18.582 13.4375 18.582 14.375C18.582 18.8672 14.9102 22.5 10.457 22.5C5.96484 22.5 2.33203 18.8672 2.33203 14.375C2.33203 9.92188 5.96484 6.25 10.457 6.25C11.3945 6.25 12.332 6.44531 13.1914 6.75781L13.3086 6.64062C13.7773 6.13281 14.5977 6.13281 15.0664 6.64062ZM10.1445 10H10.457C10.7695 10 11.082 9.72656 11.082 9.375C11.082 9.0625 10.7695 8.75 10.457 8.75H10.1445C7.17578 8.75 4.83203 11.1328 4.83203 14.0625V14.375C4.83203 14.7266 5.10547 15 5.45703 15C5.76953 15 6.08203 14.7266 6.08203 14.375V14.0625C6.08203 11.8359 7.87891 10 10.1445 10Z" fill="#40B0D0"/>
</svg>
