<svg width="22" height="21" viewBox="0 0 22 21" fill="none" xmlns="http://www.w3.org/2000/svg">
<path d="M20.4531 0.734375C20.8438 1.00781 21.0391 1.47656 20.9609 1.94531L18.4609 18.1953C18.4219 18.5859 18.1875 18.8984 17.8359 19.0938C17.5234 19.2891 17.0938 19.3281 16.7422 19.1719L12.0938 17.2188L9.39844 20.1094C9.04688 20.5 8.5 20.6172 8.03125 20.4219C7.5625 20.2656 7.25 19.7969 7.25 19.25V16.0078C7.25 15.8516 7.28906 15.6953 7.40625 15.5781L13.9297 8.42969C14.1641 8.19531 14.1641 7.80469 13.9297 7.57031C13.6953 7.33594 13.3047 7.33594 13.0703 7.57031L5.14062 14.6016L1.66406 12.8828C1.27344 12.6875 1 12.2578 1 11.7891C0.960938 11.3594 1.19531 10.9297 1.625 10.6953L19.125 0.695312C19.5156 0.460938 20.0625 0.460938 20.4531 0.734375Z" fill="white"/>
</svg>
