<svg width="20" height="20" viewBox="0 0 20 20" fill="none" xmlns="http://www.w3.org/2000/svg">
<path d="M7.1875 2.375C6.99219 2.375 6.875 2.53125 6.875 2.6875V4.25H13.125V2.6875C13.125 2.53125 12.9688 2.375 12.8125 2.375H7.1875ZM5 2.6875C5 1.51562 5.97656 0.5 7.1875 0.5H12.8125C13.9844 0.5 15 1.51562 15 2.6875V4.25H17.5C18.8672 4.25 20 5.38281 20 6.75V10.5H12.5H7.5H0V6.75C0 5.38281 1.09375 4.25 2.5 4.25H5V2.6875ZM20 11.75V16.75C20 18.1562 18.8672 19.25 17.5 19.25H2.5C1.09375 19.25 0 18.1562 0 16.75V11.75H7.5V13C7.5 13.7031 8.04688 14.25 8.75 14.25H11.25C11.9141 14.25 12.5 13.7031 12.5 13V11.75H20Z" fill="#40B0D0"/>
</svg>
