<svg width="24" height="24" viewBox="0 0 24 24" fill="none" xmlns="http://www.w3.org/2000/svg">
<path d="M4.5 4.375C4.5 3.35938 5.32031 2.5 6.375 2.5H17.625C18.6406 2.5 19.5 3.35938 19.5 4.375V21.6406C19.5 22.1484 19.1094 22.5 18.6016 22.5C18.4453 22.5 18.2891 22.4609 18.1328 22.3828L12 18.2812L5.82812 22.3828C5.67188 22.4609 5.51562 22.5 5.35938 22.5C4.85156 22.5 4.5 22.1484 4.5 21.6406V4.375ZM6.375 3.75C6.02344 3.75 5.75 4.0625 5.75 4.375V20.9375L11.6484 16.9922C11.8438 16.875 12.1172 16.875 12.3125 16.9922L18.25 20.9375V4.375C18.25 4.0625 17.9375 3.75 17.625 3.75H6.375Z" fill="#475467"/>
</svg>
