<svg width="20" height="21" viewBox="0 0 20 21" fill="none" xmlns="http://www.w3.org/2000/svg">
<path d="M18.3327 7.66384C18.3327 7.15899 18.3327 6.90657 18.2329 6.78968C18.1462 6.68826 18.0163 6.63444 17.8833 6.6449C17.7301 6.65696 17.5516 6.83545 17.1946 7.19243L14.166 10.221L17.1946 13.2496C17.5516 13.6066 17.7301 13.7851 17.8833 13.7972C18.0163 13.8076 18.1462 13.7538 18.2329 13.6524C18.3327 13.5355 18.3327 13.2831 18.3327 12.7782V7.66384Z" stroke="#344054" stroke-width="1.66667" stroke-linecap="round" stroke-linejoin="round"/>
<path d="M1.66602 8.3877C1.66602 6.98756 1.66602 6.2875 1.9385 5.75272C2.17818 5.28231 2.56063 4.89986 3.03104 4.66018C3.56582 4.3877 4.26588 4.3877 5.66602 4.3877H10.166C11.5661 4.3877 12.2662 4.3877 12.801 4.66018C13.2714 4.89986 13.6538 5.28231 13.8935 5.75272C14.166 6.2875 14.166 6.98756 14.166 8.3877V12.0544C14.166 13.4545 14.166 14.1546 13.8935 14.6893C13.6538 15.1597 13.2714 15.5422 12.801 15.7819C12.2662 16.0544 11.5661 16.0544 10.166 16.0544H5.66602C4.26588 16.0544 3.56582 16.0544 3.03104 15.7819C2.56063 15.5422 2.17818 15.1597 1.9385 14.6893C1.66602 14.1546 1.66602 13.4545 1.66602 12.0544V8.3877Z" stroke="#344054" stroke-width="1.66667" stroke-linecap="round" stroke-linejoin="round"/>
</svg>
