<svg width="20" height="20" viewBox="0 0 20 20" fill="none" xmlns="http://www.w3.org/2000/svg">
<path d="M10 2C14.4062 2 18 5.59375 18 10C18 14.4375 14.4062 18 10 18C5.5625 18 2 14.4375 2 10C2 7.78125 2.90625 5.75 4.375 4.3125C4.78125 3.90625 5.40625 3.90625 5.8125 4.3125C6.1875 4.71875 6.1875 5.34375 5.78125 5.71875C4.6875 6.8125 4 8.34375 4 10C4 13.3125 6.6875 16 10 16C13.3125 16 16 13.3125 16 10C16 7.03125 13.8125 4.5625 11 4.09375V5C11 5.5625 10.5312 6 10 6C9.4375 6 9 5.5625 9 5V3C9 2.46875 9.4375 2 10 2ZM8.03125 6.96875L10.5312 9.46875C10.8125 9.78125 10.8125 10.25 10.5312 10.5312C10.2188 10.8438 9.75 10.8438 9.46875 10.5312L6.96875 8.03125C6.65625 7.75 6.65625 7.28125 6.96875 6.96875C7.25 6.6875 7.71875 6.6875 8.03125 6.96875Z" fill="#475467"/>
</svg>
