<svg width="20" height="21" viewBox="0 0 20 21" fill="none" xmlns="http://www.w3.org/2000/svg">
<path d="M18.3984 1.35938L19.1406 2.10156C20 2.96094 20 4.32812 19.1406 5.1875L17.9688 6.35938L14.1406 2.53125L15.3125 1.35938C16.1719 0.5 17.5391 0.5 18.3984 1.35938ZM6.71875 9.95312L13.2422 3.42969L17.0703 7.25781L10.5469 13.7812C10.3125 14.0156 10 14.2109 9.6875 14.3281L6.21094 15.4609C5.89844 15.5781 5.50781 15.5 5.27344 15.2266C5 14.9922 4.92188 14.6016 5.03906 14.2891L6.17188 10.8125C6.28906 10.5 6.48438 10.1875 6.71875 9.95312ZM3.75 3H7.5C8.16406 3 8.75 3.58594 8.75 4.25C8.75 4.95312 8.16406 5.5 7.5 5.5H3.75C3.04688 5.5 2.5 6.08594 2.5 6.75V16.75C2.5 17.4531 3.04688 18 3.75 18H13.75C14.4141 18 15 17.4531 15 16.75V13C15 12.3359 15.5469 11.75 16.25 11.75C16.9141 11.75 17.5 12.3359 17.5 13V16.75C17.5 18.8203 15.8203 20.5 13.75 20.5H3.75C1.67969 20.5 0 18.8203 0 16.75V6.75C0 4.67969 1.67969 3 3.75 3Z" fill="#40B0D0"/>
</svg>
