<svg width="24" height="24" viewBox="0 0 24 24" fill="none" xmlns="http://www.w3.org/2000/svg">
<path d="M3.25 4.375V18.125C3.25 19.1797 4.07031 20 5.125 20H21.375C21.6875 20 22 20.3125 22 20.625C22 20.9766 21.6875 21.25 21.375 21.25H5.125C3.36719 21.25 2 19.8828 2 18.125V4.375C2 4.0625 2.27344 3.75 2.625 3.75C2.9375 3.75 3.25 4.0625 3.25 4.375ZM20.5547 8.59375L14.9297 14.2188C14.6953 14.4531 14.2656 14.4531 14.0312 14.2188L10.75 10.8984L6.80469 14.8438C6.57031 15.0781 6.14062 15.0781 5.90625 14.8438C5.67188 14.6094 5.67188 14.1797 5.90625 13.9453L10.2812 9.57031C10.5156 9.33594 10.9453 9.33594 11.1797 9.57031L14.5 12.8906L19.6562 7.69531C19.8906 7.46094 20.3203 7.46094 20.5547 7.69531C20.7891 7.92969 20.7891 8.35938 20.5547 8.59375Z" fill="#475467"/>
</svg>
