<svg width="20" height="20" viewBox="0 0 20 20" fill="none" xmlns="http://www.w3.org/2000/svg">
<path d="M14.3438 3.25L12.6562 4.96875L15.0312 7.34375L16.75 5.65625C17.0312 5.34375 17.0312 4.875 16.75 4.59375L15.4062 3.25C15.125 2.96875 14.6562 2.96875 14.3438 3.25ZM11.9375 5.65625L4.59375 13.0312C4.34375 13.25 4.15625 13.5625 4.0625 13.875L3.21875 16.7812L6.125 15.9062C6.4375 15.8125 6.75 15.6562 6.96875 15.4062L14.3438 8.0625L11.9375 5.65625ZM16.125 2.53125L17.4688 3.875C18.125 4.5625 18.125 5.65625 17.4688 6.34375L7.6875 16.125C7.3125 16.4688 6.875 16.75 6.40625 16.875L2.625 18C2.4375 18.0312 2.25 18 2.125 17.875C2 17.75 1.96875 17.5625 2 17.375L3.125 13.5938C3.25 13.125 3.53125 12.6875 3.875 12.3125L13.6562 2.53125C14.3438 1.875 15.4375 1.875 16.125 2.53125Z" fill="#475467"/>
</svg>
