<svg width="20" height="20" viewBox="0 0 20 20" fill="none" xmlns="http://www.w3.org/2000/svg">
<path d="M10.0938 4.6875C10.625 4.25 11.2812 4 11.9688 4C12.5312 4 13.0938 4.1875 13.5625 4.46875L15.8438 5.9375L15.9688 6H16V11.9062L11.6562 7.90625L12.2812 7.40625C12.5 7.25 12.5625 6.9375 12.375 6.71875C12.2188 6.5 11.9062 6.4375 11.6875 6.625L8.5625 9.03125C8.03125 9.4375 7.25 9.34375 6.84375 8.78125C6.46875 8.25 6.5625 7.53125 7.0625 7.125L10.0938 4.6875ZM10.8125 8.5625L15 12.4062C15.5938 12.9688 15.6562 13.9062 15.0938 14.5312C14.5938 15.0938 13.75 15.1562 13.1562 14.75C13.0938 14.9375 12.9688 15.125 12.8438 15.2812C12.2812 15.875 11.3438 15.9375 10.7188 15.375L10.1875 14.875C10.125 15.125 10 15.3438 9.84375 15.5312C9.28125 16.125 8.34375 16.1875 7.71875 15.625L4.875 13H4V6L6.25 4.5C6.71875 4.1875 7.3125 4 7.875 4.03125C8.28125 4.03125 8.6875 4.09375 9.03125 4.25L6.4375 6.34375C5.53125 7.09375 5.34375 8.4375 6.03125 9.375C6.78125 10.375 8.21875 10.5938 9.1875 9.8125L10.8125 8.5625ZM0.5 6H3V13C3 13.5625 2.53125 14 2 14H1C0.4375 14 0 13.5625 0 13V6.5C0 6.25 0.21875 6 0.5 6ZM1.5 12C1.21875 12 1 12.25 1 12.5C1 12.7812 1.21875 13 1.5 13C1.75 13 2 12.7812 2 12.5C2 12.25 1.75 12 1.5 12ZM17 6H19.5C19.75 6 20 6.25 20 6.5V13C20 13.5625 19.5312 14 19 14H18C17.4375 14 17 13.5625 17 13V6ZM18 12.5C18 12.7812 18.2188 13 18.5 13C18.75 13 19 12.7812 19 12.5C19 12.25 18.75 12 18.5 12C18.2188 12 18 12.25 18 12.5Z" fill="#2494B6"/>
</svg>
