<svg width="20" height="20" viewBox="0 0 20 20" fill="none" xmlns="http://www.w3.org/2000/svg">
<path d="M3 6C3 4.59375 3.75 3.28125 5 2.5625C6.21875 1.84375 7.75 1.84375 9 2.5625C10.2188 3.28125 11 4.59375 11 6C11 7.4375 10.2188 8.75 9 9.46875C7.75 10.1875 6.21875 10.1875 5 9.46875C3.75 8.75 3 7.4375 3 6ZM0 17.0938C0 14 2.46875 11.5 5.5625 11.5H8.40625C11.5 11.5 14 14 14 17.0938C14 17.5938 13.5625 18 13.0625 18H0.90625C0.40625 18 0 17.5938 0 17.0938ZM19.5312 7.53125L15.5312 11.5312C15.2188 11.8438 14.75 11.8438 14.4688 11.5312L12.4688 9.53125C12.1562 9.25 12.1562 8.78125 12.4688 8.5C12.75 8.1875 13.2188 8.1875 13.5312 8.5L15 9.96875L18.4688 6.46875C18.75 6.1875 19.2188 6.1875 19.5 6.46875C19.8125 6.78125 19.8125 7.25 19.5 7.53125H19.5312Z" fill="#2494B6"/>
</svg>
