<svg width="18" height="14" viewBox="0 0 18 14" fill="none" xmlns="http://www.w3.org/2000/svg">
<path d="M0 1.5C0 0.6875 0.65625 0 1.5 0H4.5C5.3125 0 6 0.6875 6 1.5V2H12V1.5C12 0.6875 12.6562 0 13.5 0H16.5C17.3125 0 18 0.6875 18 1.5V4.5C18 5.34375 17.3125 6 16.5 6H13.5C12.6562 6 12 5.34375 12 4.5V4H6V4.5C6 4.5625 5.96875 4.625 5.96875 4.65625L8.5 8H11.5C12.3125 8 13 8.6875 13 9.5V12.5C13 13.3438 12.3125 14 11.5 14H8.5C7.65625 14 7 13.3438 7 12.5V9.5C7 9.46875 7 9.40625 7 9.34375L4.5 6H1.5C0.65625 6 0 5.34375 0 4.5V1.5Z" fill="#2494B6"/>
</svg>
