<svg width="20" height="20" viewBox="0 0 20 20" fill="none" xmlns="http://www.w3.org/2000/svg">
<path d="M4 2.46875C4 2.21875 4.1875 2 4.4375 2H6C8.75 2 11 4.25 11 7V10C11 10.5625 10.5312 11 10 11C9.4375 11 9 10.5625 9 10V7H8.53125C6.03125 7 4 4.96875 4 2.46875ZM16 2.46875C16 4.78125 14.25 6.71875 12 6.96875C11.9688 5.59375 11.5 4.28125 10.6875 3.28125C11.5625 2.5 12.7188 2 14 2H15.5312C15.7812 2 16 2.21875 16 2.46875ZM18.75 12.5312C19.1562 13.0625 19.0312 13.8438 18.4688 14.2812L14.5312 17.1875C13.7812 17.7188 12.9062 18 12 18H7H2C1.4375 18 1 17.5625 1 17V15C1 14.4688 1.4375 14 2 14H3.125L4.53125 12.875C5.25 12.3125 6.125 12 7.03125 12H9.5H10H12C12.5312 12 13 12.4688 13 13C13 13.5625 12.5312 14 12 14H10H9.5C9.21875 14 9 14.25 9 14.5C9 14.7812 9.21875 15 9.5 15H13.25L17 12.25C17.5625 11.8438 18.3438 11.9688 18.75 12.5312ZM7.03125 14H7C7.03125 14 7.03125 14 7.03125 14Z" fill="#2494B6"/>
</svg>
