<svg width="20" height="20" viewBox="0 0 20 20" fill="none" xmlns="http://www.w3.org/2000/svg">
<path d="M2 2C2 0.895431 2.89543 0 4 0H12L18 6V18C18 19.1046 17.1046 20 16 20H4C2.89543 20 2 19.1046 2 18V2Z" fill="#D92D20"/>
<path opacity="0.3" d="M12 0L18 6H14C12.8954 6 12 5.10457 12 4V0Z" fill="white"/>
<path d="M5.87453 15.5V12.2273H7.16573C7.41395 12.2273 7.62542 12.2747 7.80014 12.3695C7.97485 12.4632 8.10802 12.5938 8.19964 12.761C8.29232 12.9272 8.33867 13.119 8.33867 13.3363C8.33867 13.5536 8.29179 13.7454 8.19804 13.9116C8.10429 14.0778 7.96846 14.2072 7.79055 14.2999C7.6137 14.3926 7.39957 14.4389 7.14815 14.4389H6.32517V13.8844H7.03629C7.16946 13.8844 7.27919 13.8615 7.36548 13.8157C7.45284 13.7688 7.51782 13.7044 7.56044 13.6223C7.60411 13.5392 7.62595 13.4439 7.62595 13.3363C7.62595 13.2276 7.60411 13.1328 7.56044 13.0518C7.51782 12.9698 7.45284 12.9064 7.36548 12.8617C7.27812 12.8159 7.16732 12.793 7.03309 12.793H6.56647V15.5H5.87453ZM9.94826 15.5H8.78811V12.2273H9.95785C10.287 12.2273 10.5704 12.2928 10.808 12.4238C11.0456 12.5538 11.2283 12.7408 11.3561 12.9847C11.485 13.2287 11.5495 13.5206 11.5495 13.8604C11.5495 14.2013 11.485 14.4943 11.3561 14.7393C11.2283 14.9844 11.0445 15.1724 10.8048 15.3034C10.5662 15.4345 10.2807 15.5 9.94826 15.5ZM9.48005 14.9071H9.9195C10.124 14.9071 10.2961 14.8709 10.4357 14.7985C10.5763 14.725 10.6818 14.6115 10.7521 14.4581C10.8234 14.3036 10.8591 14.1044 10.8591 13.8604C10.8591 13.6186 10.8234 13.421 10.7521 13.2676C10.6818 13.1142 10.5768 13.0012 10.4373 12.9288C10.2977 12.8564 10.1256 12.8201 9.9211 12.8201H9.48005V14.9071ZM12.062 15.5V12.2273H14.2289V12.7978H12.754V13.5776H14.0851V14.1481H12.754V15.5H12.062Z" fill="white"/>
</svg>
