<svg width="20" height="19" viewBox="0 0 20 19" fill="none" xmlns="http://www.w3.org/2000/svg">
<path d="M20 15.75C20 17.1562 18.8672 18.25 17.5 18.25H2.5C1.09375 18.25 0 17.1562 0 15.75V3.25C0 1.88281 1.09375 0.75 2.5 0.75H7.5C8.28125 0.75 9.02344 1.14062 9.49219 1.76562L10.2344 2.78125C10.4688 3.09375 10.8203 3.25 11.25 3.25H17.5C18.8672 3.25 20 4.38281 20 5.75V15.75ZM10.9375 14.1875V10.2031L12.1484 11.4141C12.5 11.8047 13.0859 11.8047 13.4375 11.4141C13.8281 11.0625 13.8281 10.4766 13.4375 10.0859L10.625 7.27344C10.2734 6.92188 9.6875 6.92188 9.33594 7.27344L6.52344 10.0859C6.13281 10.4766 6.13281 11.0625 6.52344 11.4141C6.875 11.8047 7.46094 11.8047 7.8125 11.4141L9.02344 10.2031V14.1875C9.02344 14.7344 9.45312 15.125 9.96094 15.125C10.5078 15.125 10.8984 14.7344 10.8984 14.1875H10.9375Z" fill="#40B0D0"/>
</svg>
