<svg width="20" height="20" viewBox="0 0 20 20" fill="none" xmlns="http://www.w3.org/2000/svg">
<path d="M3.5 4C3.21875 4 3 4.25 3 4.5V11.5V13V15C3 15.5625 3.4375 16 4 16H16C16.5312 16 17 15.5625 17 15V12V11.5V6.96875C17 6.78125 16.75 6.65625 16.5938 6.78125L12.2812 9.875C12.125 10 11.9375 10 11.75 9.90625C11.5938 9.84375 11.5 9.65625 11.5 9.46875V6.90625C11.5 6.71875 11.25 6.59375 11.0938 6.71875L6.75 9.59375C6.625 9.6875 6.40625 9.71875 6.25 9.625C6.09375 9.53125 6 9.375 6 9.1875V4.5C6 4.25 5.75 4 5.5 4H3.5ZM2 4.5C2 3.6875 2.65625 3 3.5 3H5.5C6.3125 3 7 3.6875 7 4.5V8.25L10.5312 5.875C11.375 5.3125 12.5 5.90625 12.5 6.90625V8.5L16 5.96875C16.8438 5.375 18 5.96875 18 6.96875V11.5V12V15C18 16.125 17.0938 17 16 17H4C2.875 17 2 16.125 2 15V13V11.5V4.5Z" fill="#475467"/>
</svg>
