<svg width="24" height="24" viewBox="0 0 24 24" fill="none" xmlns="http://www.w3.org/2000/svg">
<path d="M12.8984 22.0312C12.4297 22.6172 11.5312 22.6172 11.0625 22.0312C9.07031 19.4922 4.5 13.4375 4.5 10C4.5 5.85938 7.85938 2.5 12 2.5C16.1406 2.5 19.5 5.85938 19.5 10C19.5 13.4375 14.9297 19.4922 12.8984 22.0312ZM12 7.5C11.1016 7.5 10.2812 8.00781 9.8125 8.75C9.38281 9.53125 9.38281 10.5078 9.8125 11.25C10.2812 12.0312 11.1016 12.5 12 12.5C12.8594 12.5 13.6797 12.0312 14.1484 11.25C14.5781 10.5078 14.5781 9.53125 14.1484 8.75C13.6797 8.00781 12.8594 7.5 12 7.5Z" fill="#475467"/>
</svg>
