<svg width="12" height="17" viewBox="0 0 12 17" fill="none" xmlns="http://www.w3.org/2000/svg">
<path d="M11 6C11 3.25 8.75 1 6 1C3.21875 1 1 3.25 1 6C1 6.5 1.15625 7.15625 1.5 8C1.84375 8.8125 2.3125 9.6875 2.875 10.5625C3.9375 12.2812 5.1875 13.9375 6 14.9375C6.78125 13.9375 8.03125 12.2812 9.125 10.5625C9.65625 9.6875 10.125 8.8125 10.4688 8C10.8125 7.15625 11 6.5 11 6ZM12 6C12 8.75 8.34375 13.5938 6.71875 15.625C6.34375 16.0938 5.625 16.0938 5.25 15.625C3.65625 13.5938 0 8.75 0 6C0 2.6875 2.6875 0 6 0C9.3125 0 12 2.6875 12 6ZM4.5 6C4.5 6.5625 4.78125 7.03125 5.25 7.3125C5.6875 7.59375 6.28125 7.59375 6.75 7.3125C7.1875 7.03125 7.5 6.5625 7.5 6C7.5 5.46875 7.1875 5 6.75 4.71875C6.28125 4.4375 5.6875 4.4375 5.25 4.71875C4.78125 5 4.5 5.46875 4.5 6ZM6 8.5C5.09375 8.5 4.28125 8.03125 3.8125 7.25C3.375 6.5 3.375 5.53125 3.8125 4.75C4.28125 4 5.09375 3.5 6 3.5C6.875 3.5 7.6875 4 8.15625 4.75C8.59375 5.53125 8.59375 6.5 8.15625 7.25C7.6875 8.03125 6.875 8.5 6 8.5Z" fill="#475467"/>
</svg>
