<svg width="24" height="24" viewBox="0 0 24 24" fill="none" xmlns="http://www.w3.org/2000/svg">
<path d="M8.25 5C7.54688 5 7 5.58594 7 6.25V18.75C7 19.2188 6.84375 19.6484 6.64844 20H18.875C19.8906 20 20.75 19.1797 20.75 18.125V6.25C20.75 5.58594 20.1641 5 19.5 5H8.25ZM4.5 21.25C3.09375 21.25 2 20.1562 2 18.75V8.75C2 7.38281 3.09375 6.25 4.5 6.25V7.5C3.79688 7.5 3.25 8.08594 3.25 8.75V18.75C3.25 19.4531 3.79688 20 4.5 20C5.16406 20 5.75 19.4531 5.75 18.75V6.25C5.75 4.88281 6.84375 3.75 8.25 3.75H19.5C20.8672 3.75 22 4.88281 22 6.25V18.125C22 19.8828 20.5938 21.25 18.875 21.25H4.5ZM17 6.875C17 6.5625 17.2734 6.25 17.625 6.25H18.875C19.1875 6.25 19.5 6.5625 19.5 6.875C19.5 7.22656 19.1875 7.5 18.875 7.5H17.625C17.2734 7.5 17 7.22656 17 6.875ZM17 9.375C17 9.0625 17.2734 8.75 17.625 8.75H18.875C19.1875 8.75 19.5 9.0625 19.5 9.375C19.5 9.72656 19.1875 10 18.875 10H17.625C17.2734 10 17 9.72656 17 9.375ZM17 11.875C17 11.5625 17.2734 11.25 17.625 11.25H18.875C19.1875 11.25 19.5 11.5625 19.5 11.875C19.5 12.2266 19.1875 12.5 18.875 12.5H17.625C17.2734 12.5 17 12.2266 17 11.875ZM8.25 14.375C8.25 14.0625 8.52344 13.75 8.875 13.75H18.875C19.1875 13.75 19.5 14.0625 19.5 14.375C19.5 14.7266 19.1875 15 18.875 15H8.875C8.52344 15 8.25 14.7266 8.25 14.375ZM8.25 16.875C8.25 16.5625 8.52344 16.25 8.875 16.25H18.875C19.1875 16.25 19.5 16.5625 19.5 16.875C19.5 17.2266 19.1875 17.5 18.875 17.5H8.875C8.52344 17.5 8.25 17.2266 8.25 16.875ZM9.5 11.25H14.5V7.5H9.5V11.25ZM8.25 7.1875C8.25 6.67969 8.64062 6.25 9.1875 6.25H14.8125C15.3203 6.25 15.75 6.67969 15.75 7.1875V11.5625C15.75 12.1094 15.3203 12.5 14.8125 12.5H9.1875C8.64062 12.5 8.25 12.1094 8.25 11.5625V7.1875Z" fill="#475467"/>
</svg>
