<svg width="20" height="21" viewBox="0 0 20 21" fill="none" xmlns="http://www.w3.org/2000/svg">
<path d="M11.7074 5.22103C12.5213 5.37983 13.2694 5.77791 13.8558 6.36431C14.4422 6.95071 14.8403 7.69875 14.9991 8.5127M11.7074 1.8877C13.3985 2.07556 14.9754 2.83284 16.1793 4.0352C17.3831 5.23756 18.1424 6.81354 18.3324 8.50436M8.52155 11.7736C7.52023 10.7723 6.72958 9.64007 6.14958 8.43205C6.09969 8.32815 6.07475 8.27619 6.05558 8.21045C5.98748 7.97682 6.0364 7.68994 6.17807 7.49208C6.21794 7.4364 6.26557 7.38877 6.36083 7.29351C6.65217 7.00217 6.79784 6.8565 6.89308 6.71002C7.25224 6.15761 7.25224 5.44546 6.89308 4.89306C6.79784 4.74657 6.65217 4.6009 6.36083 4.30957L6.19844 4.14717C5.75557 3.70431 5.53414 3.48287 5.29632 3.36258C4.82335 3.12336 4.2648 3.12336 3.79183 3.36258C3.55401 3.48287 3.33258 3.70431 2.88971 4.14717L2.75835 4.27854C2.31699 4.71989 2.09632 4.94057 1.92778 5.24059C1.74076 5.57351 1.60629 6.09059 1.60743 6.47244C1.60845 6.81656 1.67521 7.05175 1.80871 7.52212C2.52619 10.05 3.87992 12.4353 5.8699 14.4252C7.85988 16.4152 10.2452 17.7689 12.773 18.4864C13.2434 18.6199 13.4786 18.6867 13.8227 18.6877C14.2045 18.6888 14.7216 18.5544 15.0545 18.3674C15.3546 18.1988 15.5752 17.9781 16.0166 17.5368L16.148 17.4054C16.5908 16.9626 16.8123 16.7411 16.9325 16.5033C17.1718 16.0303 17.1718 15.4718 16.9325 14.9988C16.8123 14.761 16.5908 14.5396 16.148 14.0967L15.9856 13.9343C15.6942 13.643 15.5486 13.4973 15.4021 13.4021C14.8497 13.0429 14.1375 13.0429 13.5851 13.4021C13.4386 13.4973 13.293 13.643 13.0016 13.9343C12.9064 14.0296 12.8587 14.0772 12.8031 14.1171C12.6052 14.2587 12.3183 14.3077 12.0847 14.2396C12.0189 14.2204 11.967 14.1954 11.8631 14.1456C10.6551 13.5656 9.52286 12.7749 8.52155 11.7736Z" stroke="#344054" stroke-width="1.66667" stroke-linecap="round" stroke-linejoin="round"/>
</svg>
