<svg width="14" height="16" viewBox="0 0 14 16" fill="none" xmlns="http://www.w3.org/2000/svg">
<path d="M5.53125 1C5.375 1 5.21875 1.09375 5.125 1.25L4.625 2H9.34375L8.84375 1.25C8.75 1.09375 8.59375 1 8.4375 1H5.53125ZM10.5 2H11.9688H13H13.5C13.75 2 14 2.25 14 2.5C14 2.78125 13.75 3 13.5 3H12.9062L12.125 14.1562C12.0312 15.2188 11.1875 16 10.125 16H3.84375C2.8125 16 1.9375 15.2188 1.84375 14.1562L1.0625 3H0.5C0.21875 3 0 2.78125 0 2.5C0 2.25 0.21875 2 0.5 2H1H2H3.46875L4.28125 0.71875C4.53125 0.28125 5.03125 0 5.53125 0H8.4375C8.9375 0 9.4375 0.28125 9.71875 0.71875L10.5 2ZM11.9062 3H2.0625L2.84375 14.0938C2.875 14.5938 3.3125 15 3.84375 15H10.125C10.6562 15 11.0938 14.5938 11.125 14.0938L11.9062 3Z" fill="#475467"/>
</svg>
