<svg width="16" height="16" viewBox="0 0 16 16" fill="none" xmlns="http://www.w3.org/2000/svg">
<path d="M6.28125 4.5L6.125 4.625C4.40625 5.71875 1 8.40625 1 13C1 14.125 1.875 15 3 15H13C14.0938 15 15 14.125 15 13C15 8.40625 11.5625 5.71875 9.84375 4.625L9.6875 4.5H6.28125ZM9.34375 3.5H9.375L9.5625 3.21875L11.0938 1H4.875L6.40625 3.21875L6.625 3.5H9.34375ZM4.75 4.34375C5.0625 4.125 5.34375 3.9375 5.59375 3.78125L5 2.9375L3.78125 1.1875C3.46875 0.6875 3.8125 0 4.40625 0H11.5625C12.1562 0 12.5312 0.6875 12.1875 1.1875L10.9688 2.9375L10.4062 3.78125C10.625 3.9375 10.9062 4.125 11.2188 4.34375C13.125 5.75 16 8.5625 16 13C16 14.6562 14.6562 16 13 16H3C1.34375 16 0 14.6562 0 13C0 8.5625 2.84375 5.75 4.75 4.34375ZM8.5 6.75V7.3125C8.75 7.34375 9 7.40625 9.25 7.46875C9.5 7.53125 9.65625 7.8125 9.59375 8.0625C9.53125 8.34375 9.25 8.5 8.96875 8.4375C8.625 8.34375 8.28125 8.28125 7.96875 8.25C7.71875 8.25 7.4375 8.3125 7.25 8.4375C7.0625 8.53125 7 8.65625 7 8.84375C7 8.9375 7.03125 9.03125 7.21875 9.15625C7.4375 9.28125 7.71875 9.375 8.125 9.5H8.15625C8.5 9.59375 8.9375 9.75 9.28125 9.9375C9.65625 10.1875 9.96875 10.5625 10 11.1562C10 11.75 9.6875 12.1875 9.28125 12.4375C9.03125 12.5938 8.75 12.6875 8.5 12.7188V13.25C8.5 13.5312 8.25 13.75 8 13.75C7.71875 13.75 7.5 13.5312 7.5 13.25V12.7188C7.125 12.6562 6.8125 12.5312 6.53125 12.4375C6.46875 12.4062 6.375 12.375 6.3125 12.375C6.0625 12.2812 5.9375 12 6 11.75C6.09375 11.4688 6.375 11.3438 6.65625 11.4062C6.71875 11.4375 6.78125 11.4688 6.875 11.5C7.28125 11.625 7.625 11.75 8 11.7812C8.28125 11.7812 8.5625 11.7188 8.75 11.5938C8.90625 11.5 9 11.375 8.96875 11.1562C8.96875 11.0312 8.9375 10.9062 8.75 10.8125C8.53125 10.6562 8.21875 10.5625 7.84375 10.4375H7.78125C7.4375 10.3438 7.03125 10.2188 6.6875 10C6.3125 9.78125 6 9.40625 6 8.84375C6 8.25 6.3125 7.8125 6.71875 7.5625C6.96875 7.4375 7.21875 7.34375 7.5 7.3125V6.75C7.5 6.5 7.71875 6.25 8 6.25C8.25 6.25 8.5 6.5 8.5 6.75Z" fill="#475467"/>
</svg>
