<svg width="13" height="13" viewBox="0 0 13 13" fill="none" xmlns="http://www.w3.org/2000/svg">
<path d="M6.84375 0.65625L11.8438 5.65625C12.0312 5.84375 12.0312 6.1875 11.8438 6.375C11.6562 6.5625 11.3125 6.5625 11.125 6.375L6.5 1.71875L1.84375 6.375C1.65625 6.5625 1.3125 6.5625 1.125 6.375C0.9375 6.1875 0.9375 5.84375 1.125 5.65625L6.125 0.65625C6.3125 0.46875 6.65625 0.46875 6.84375 0.65625ZM11.8438 11.6562C12.0312 11.8438 12.0312 12.1875 11.8438 12.375C11.6562 12.5625 11.3125 12.5625 11.125 12.375L6.5 7.71875L1.84375 12.375C1.65625 12.5625 1.3125 12.5625 1.125 12.375C0.9375 12.1875 0.9375 11.8438 1.125 11.6562L6.125 6.65625C6.3125 6.46875 6.65625 6.46875 6.84375 6.65625L11.8438 11.6562Z" fill="#217799"/>
</svg>
