<svg width="20" height="20" viewBox="0 0 20 20" fill="none" xmlns="http://www.w3.org/2000/svg">
<path d="M10.3438 16.375C10.1562 16.5625 9.8125 16.5625 9.625 16.375L4.625 11.375C4.4375 11.1875 4.4375 10.8438 4.625 10.6562C4.8125 10.4688 5.15625 10.4688 5.34375 10.6562L10 15.3125L14.625 10.6562C14.8125 10.4688 15.1562 10.4688 15.3438 10.6562C15.5312 10.8438 15.5312 11.1875 15.3438 11.375L10.3438 16.375ZM15.3438 5.375L10.3438 10.375C10.1562 10.5625 9.8125 10.5625 9.625 10.375L4.625 5.375C4.4375 5.1875 4.4375 4.84375 4.625 4.65625C4.8125 4.46875 5.15625 4.46875 5.34375 4.65625L10 9.3125L14.625 4.65625C14.8125 4.46875 15.1562 4.46875 15.3438 4.65625C15.5312 4.84375 15.5312 5.1875 15.3438 5.375Z" fill="#236785"/>
</svg>
