<svg width="32" height="32" viewBox="0 0 32 32" fill="none" xmlns="http://www.w3.org/2000/svg">
<g clip-path="url(#clip0_2028_10159)">
<path d="M24.7116 5.66727C25.0155 6.4023 25.5989 6.98655 26.3334 7.29157L28.9092 8.3585C29.6443 8.66298 30.2283 9.247 30.5328 9.98208C30.8373 10.7172 30.8373 11.5431 30.5328 12.2782L29.4666 14.8521C29.162 15.5875 29.1616 16.4143 29.4676 17.1493L30.5319 19.7225C30.6829 20.0866 30.7606 20.4768 30.7606 20.871C30.7607 21.2651 30.6831 21.6554 30.5323 22.0195C30.3815 22.3836 30.1604 22.7145 29.8816 22.9931C29.6029 23.2718 29.272 23.4927 28.9078 23.6435L26.3339 24.7096C25.5989 25.0135 25.0146 25.5969 24.7096 26.3315L23.6427 28.9073C23.3382 29.6423 22.7541 30.2264 22.0191 30.5308C21.284 30.8353 20.458 30.8353 19.723 30.5308L17.149 29.4647C16.4139 29.161 15.5883 29.1616 14.8536 29.4664L12.2779 30.5318C11.5432 30.8356 10.718 30.8353 9.9835 30.5311C9.24901 30.2269 8.66532 29.6435 8.36062 28.9092L7.29338 26.3327C6.98946 25.5977 6.40609 25.0134 5.67152 24.7084L3.09575 23.6415C2.36098 23.3371 1.77713 22.7535 1.47254 22.0188C1.16795 21.2841 1.16753 20.4586 1.47139 19.7236L2.53755 17.1497C2.84128 16.4146 2.84066 15.5889 2.53582 14.8543L1.4712 12.2767C1.32025 11.9126 1.24253 11.5223 1.24247 11.1282C1.2424 10.7341 1.32 10.3438 1.47083 9.97969C1.62165 9.61556 1.84275 9.28472 2.12149 9.00608C2.40022 8.72743 2.73113 8.50644 3.09531 8.35573L5.66923 7.28957C6.40362 6.98592 6.98752 6.40328 7.29277 5.66956L8.35969 3.09378C8.66418 2.3587 9.2482 1.77467 9.98328 1.47019C10.7184 1.16571 11.5443 1.16571 12.2794 1.47019L14.8533 2.53635C15.5884 2.84008 16.4141 2.83946 17.1487 2.53462L19.7256 1.47185C20.4605 1.16753 21.2863 1.1676 22.0212 1.47202C22.7562 1.77644 23.3401 2.3603 23.6447 3.09519L24.7119 5.67173L24.7116 5.66727Z" fill="#2E90FA"/>
<path fill-rule="evenodd" clip-rule="evenodd" d="M22.2665 11.8058C22.4803 11.4701 22.5519 11.0631 22.4656 10.6746C22.3794 10.286 22.1423 9.94759 21.8065 9.73383C21.4708 9.52006 21.0638 9.44843 20.6753 9.5347C20.2867 9.62097 19.9483 9.85806 19.7345 10.1938L13.8605 19.4238L11.1725 16.0638C10.924 15.753 10.5622 15.5536 10.1667 15.5095C9.77118 15.4655 9.37436 15.5803 9.06352 15.8288C8.75269 16.0773 8.55331 16.4391 8.50923 16.8347C8.46516 17.2302 8.58001 17.627 8.82852 17.9378L12.8285 22.9378C12.9776 23.1244 13.1691 23.2727 13.387 23.3703C13.6049 23.468 13.843 23.5122 14.0815 23.4993C14.32 23.4864 14.5519 23.4167 14.758 23.2961C14.9641 23.1755 15.1385 23.0074 15.2665 22.8058L22.2665 11.8058Z" fill="white"/>
</g>
<defs>
<clipPath id="clip0_2028_10159">
<rect width="32" height="32" fill="white"/>
</clipPath>
</defs>
</svg>
