<svg width="21" height="21" viewBox="0 0 21 21" fill="none" xmlns="http://www.w3.org/2000/svg">
<path d="M10.332 0.5C15.8398 0.5 20.332 4.99219 20.332 10.5C20.332 16.0469 15.8398 20.5 10.332 20.5C4.78516 20.5 0.332031 16.0469 0.332031 10.5C0.332031 7.72656 1.46484 5.1875 3.30078 3.39062C3.80859 2.88281 4.58984 2.88281 5.09766 3.39062C5.56641 3.89844 5.56641 4.67969 5.05859 5.14844C3.69141 6.51562 2.83203 8.42969 2.83203 10.5C2.83203 14.6406 6.19141 18 10.332 18C14.4727 18 17.832 14.6406 17.832 10.5C17.832 6.78906 15.0977 3.70312 11.582 3.11719V4.25C11.582 4.95312 10.9961 5.5 10.332 5.5C9.62891 5.5 9.08203 4.95312 9.08203 4.25V1.75C9.08203 1.08594 9.62891 0.5 10.332 0.5ZM7.87109 6.71094L10.9961 9.83594C11.3477 10.2266 11.3477 10.8125 10.9961 11.1641C10.6055 11.5547 10.0195 11.5547 9.66797 11.1641L6.54297 8.03906C6.15234 7.6875 6.15234 7.10156 6.54297 6.71094C6.89453 6.35938 7.48047 6.35938 7.87109 6.71094Z" fill="#40B0D0"/>
</svg>
