<svg width="24" height="19" viewBox="0 0 24 19" fill="none" xmlns="http://www.w3.org/2000/svg">
<path d="M3.25 0.75H20.75C22.1172 0.75 23.25 1.88281 23.25 3.25V15.75C23.25 17.1562 22.1172 18.25 20.75 18.25H3.25C1.84375 18.25 0.75 17.1562 0.75 15.75V3.25C0.75 1.88281 1.84375 0.75 3.25 0.75ZM6.375 10.75C4.61719 10.75 3.25 12.1562 3.25 13.875C3.25 14.2266 3.52344 14.5 3.875 14.5H11.375C11.6875 14.5 12 14.2266 12 13.875C12 12.1562 10.5938 10.75 8.875 10.75H6.375ZM5.125 7C5.125 7.89844 5.59375 8.71875 6.375 9.1875C7.11719 9.61719 8.09375 9.61719 8.875 9.1875C9.61719 8.71875 10.125 7.89844 10.125 7C10.125 6.14062 9.61719 5.32031 8.875 4.85156C8.09375 4.42188 7.11719 4.42188 6.375 4.85156C5.59375 5.32031 5.125 6.14062 5.125 7ZM15.125 5.75C14.7734 5.75 14.5 6.0625 14.5 6.375C14.5 6.72656 14.7734 7 15.125 7H20.125C20.4375 7 20.75 6.72656 20.75 6.375C20.75 6.0625 20.4375 5.75 20.125 5.75H15.125ZM15.125 8.25C14.7734 8.25 14.5 8.5625 14.5 8.875C14.5 9.22656 14.7734 9.5 15.125 9.5H20.125C20.4375 9.5 20.75 9.22656 20.75 8.875C20.75 8.5625 20.4375 8.25 20.125 8.25H15.125ZM15.125 10.75C14.7734 10.75 14.5 11.0625 14.5 11.375C14.5 11.7266 14.7734 12 15.125 12H20.125C20.4375 12 20.75 11.7266 20.75 11.375C20.75 11.0625 20.4375 10.75 20.125 10.75H15.125Z" fill="#40B0D0"/>
</svg>
