<svg width="26" height="24" viewBox="0 0 26 24" fill="none" xmlns="http://www.w3.org/2000/svg">
<path d="M6.24219 8.75C6.90625 8.75 7.49219 8.20312 7.49219 7.5C7.49219 6.83594 6.90625 6.25 6.24219 6.25C5.53906 6.25 4.99219 6.83594 4.99219 7.5C4.99219 8.20312 5.53906 8.75 6.24219 8.75ZM6.24219 5C7.14062 5 7.96094 5.50781 8.39062 6.25C8.85938 7.03125 8.85938 8.00781 8.39062 8.75C7.96094 9.53125 7.14062 10 6.24219 10C5.34375 10 4.52344 9.53125 4.05469 8.75C3.625 8.00781 3.625 7.03125 4.05469 6.25C4.52344 5.50781 5.34375 5 6.24219 5ZM19.9922 8.75C20.6562 8.75 21.2422 8.20312 21.2422 7.5C21.2422 6.83594 20.6562 6.25 19.9922 6.25C19.2891 6.25 18.7422 6.83594 18.7422 7.5C18.7422 8.20312 19.2891 8.75 19.9922 8.75ZM19.9922 5C20.8906 5 21.7109 5.50781 22.1406 6.25C22.6094 7.03125 22.6094 8.00781 22.1406 8.75C21.7109 9.53125 20.8906 10 19.9922 10C19.0938 10 18.2734 9.53125 17.8047 8.75C17.375 8.00781 17.375 7.03125 17.8047 6.25C18.2734 5.50781 19.0938 5 19.9922 5ZM14.9141 13.75H11.1641C9.79688 13.75 8.66406 14.8828 8.66406 16.25H17.4141C17.4141 14.8828 16.2812 13.75 14.9141 13.75ZM7.41406 16.25C7.41406 14.1797 9.09375 12.5 11.1641 12.5H14.9141C16.9844 12.5 18.6641 14.1797 18.6641 16.25C18.6641 16.9531 18.1172 17.5 17.4141 17.5H8.66406C7.96094 17.5 7.41406 16.9531 7.41406 16.25ZM13.0391 10C13.7031 10 14.3281 9.64844 14.6797 9.0625C14.9922 8.51562 14.9922 7.77344 14.6797 7.1875C14.3281 6.64062 13.7031 6.25 13.0391 6.25C12.375 6.25 11.75 6.64062 11.4375 7.1875C11.0859 7.77344 11.0859 8.51562 11.4375 9.0625C11.75 9.64844 12.375 10 13.0391 10ZM13.0391 5C14.1719 5 15.1875 5.625 15.7344 6.5625C16.3203 7.53906 16.3203 8.75 15.7344 9.6875C15.1875 10.6641 14.1719 11.25 13.0391 11.25C11.9453 11.25 10.8906 10.6641 10.3438 9.6875C9.79688 8.75 9.79688 7.53906 10.3438 6.5625C10.8906 5.625 11.9453 5 13.0391 5ZM3 13.75V14.375C3 14.7266 2.6875 15 2.375 15C2.02344 15 1.75 14.7266 1.75 14.375V13.75C1.75 12.3828 2.84375 11.25 4.25 11.25H7.6875C8 11.25 8.3125 11.5625 8.3125 11.875C8.3125 12.2266 8 12.5 7.6875 12.5H4.25C3.54688 12.5 3 13.0859 3 13.75ZM21.75 12.5H18.3125C17.9609 12.5 17.6875 12.2266 17.6875 11.875C17.6875 11.5625 17.9609 11.25 18.3125 11.25H21.75C23.1172 11.25 24.25 12.3828 24.25 13.75V14.375C24.25 14.7266 23.9375 15 23.625 15C23.2734 15 23 14.7266 23 14.375V13.75C23 13.0859 22.4141 12.5 21.75 12.5ZM1.125 20H24.875C25.1875 20 25.5 20.3125 25.5 20.625C25.5 20.9766 25.1875 21.25 24.875 21.25H1.125C0.773438 21.25 0.5 20.9766 0.5 20.625C0.5 20.3125 0.773438 20 1.125 20Z" fill="#475467"/>
</svg>
