<svg width="26" height="21" viewBox="0 0 26 21" fill="none" xmlns="http://www.w3.org/2000/svg">
<path d="M4.58203 5.5C4.58203 3.74219 5.51953 2.10156 7.08203 1.20312C8.60547 0.304688 10.5195 0.304688 12.082 1.20312C13.6055 2.10156 14.582 3.74219 14.582 5.5C14.582 7.29688 13.6055 8.9375 12.082 9.83594C10.5195 10.7344 8.60547 10.7344 7.08203 9.83594C5.51953 8.9375 4.58203 7.29688 4.58203 5.5ZM0.832031 19.3672C0.832031 15.5 3.91797 12.375 7.78516 12.375H11.3398C15.207 12.375 18.332 15.5 18.332 19.3672C18.332 19.9922 17.7852 20.5 17.1602 20.5H1.96484C1.33984 20.5 0.832031 19.9922 0.832031 19.3672ZM25.2461 7.41406L20.2461 12.4141C19.8555 12.8047 19.2695 12.8047 18.918 12.4141L16.418 9.91406C16.0273 9.5625 16.0273 8.97656 16.418 8.625C16.7695 8.23438 17.3555 8.23438 17.7461 8.625L19.582 10.4609L23.918 6.08594C24.2695 5.73438 24.8555 5.73438 25.207 6.08594C25.5977 6.47656 25.5977 7.0625 25.207 7.41406H25.2461Z" fill="#40B0D0"/>
</svg>
