<svg width="26" height="24" viewBox="0 0 26 24" fill="none" xmlns="http://www.w3.org/2000/svg">
<path d="M2.66797 5V16.25H22.668V5H2.66797ZM0.167969 5C0.167969 3.63281 1.26172 2.5 2.66797 2.5H22.668C24.0352 2.5 25.168 3.63281 25.168 5V16.25C25.168 17.6562 24.0352 18.75 22.668 18.75H2.66797C1.26172 18.75 0.167969 17.6562 0.167969 16.25V5ZM5.16797 20H20.168C20.832 20 21.418 20.5859 21.418 21.25C21.418 21.9531 20.832 22.5 20.168 22.5H5.16797C4.46484 22.5 3.91797 21.9531 3.91797 21.25C3.91797 20.5859 4.46484 20 5.16797 20Z" fill="#40B0D0"/>
</svg>
