<svg width="20" height="19" viewBox="0 0 20 19" fill="none" xmlns="http://www.w3.org/2000/svg">
<path d="M2.5 0.75H17.5C18.1641 0.75 18.75 1.33594 18.75 2C18.75 2.70312 18.1641 3.25 17.5 3.25H3.125C2.77344 3.25 2.5 3.5625 2.5 3.875C2.5 4.22656 2.77344 4.5 3.125 4.5H17.5C18.8672 4.5 20 5.63281 20 7V15.75C20 17.1562 18.8672 18.25 17.5 18.25H2.5C1.09375 18.25 0 17.1562 0 15.75V3.25C0 1.88281 1.09375 0.75 2.5 0.75ZM16.25 10.125C15.5469 10.125 15 10.7109 15 11.375C15 12.0781 15.5469 12.625 16.25 12.625C16.9141 12.625 17.5 12.0781 17.5 11.375C17.5 10.7109 16.9141 10.125 16.25 10.125Z" fill="#475467"/>
</svg>
